<?xml version="1.0" encoding="UTF-8" standalone="no"?>
<!-- Generator: Adobe Illustrator 19.0.0, SVG Export Plug-In . SVG Version: 6.00 Build 0)  -->

<svg
   xmlns:dc="http://purl.org/dc/elements/1.1/"
   xmlns:cc="http://creativecommons.org/ns#"
   xmlns:rdf="http://www.w3.org/1999/02/22-rdf-syntax-ns#"
   xmlns:svg="http://www.w3.org/2000/svg"
   xmlns="http://www.w3.org/2000/svg"
   xmlns:sodipodi="http://sodipodi.sourceforge.net/DTD/sodipodi-0.dtd"
   xmlns:inkscape="http://www.inkscape.org/namespaces/inkscape"
   version="1.1"
   id="Capa_1"
   x="0px"
   y="0px"
   viewBox="0 0 470 470"
   style="enable-background:new 0 0 470 470;"
   xml:space="preserve"
   sodipodi:docname="mint.svg"
   inkscape:version="0.92.3 (2405546, 2018-03-11)"><metadata
   id="metadata49"><rdf:RDF><cc:Work
       rdf:about=""><dc:format>image/svg+xml</dc:format><dc:type
         rdf:resource="http://purl.org/dc/dcmitype/StillImage" /><dc:title></dc:title></cc:Work></rdf:RDF></metadata><defs
   id="defs47" /><sodipodi:namedview
   pagecolor="#ffffff"
   bordercolor="#666666"
   borderopacity="1"
   objecttolerance="10"
   gridtolerance="10"
   guidetolerance="10"
   inkscape:pageopacity="0"
   inkscape:pageshadow="2"
   inkscape:window-width="1790"
   inkscape:window-height="1420"
   id="namedview45"
   showgrid="false"
   inkscape:zoom="1.4202315"
   inkscape:cx="16.068708"
   inkscape:cy="235"
   inkscape:window-x="1920"
   inkscape:window-y="18"
   inkscape:window-maximized="0"
   inkscape:current-layer="g12" />
<g
   id="g12">
	<path
   style="fill:#a3e1fa;fill-opacity:1"
   d="M235,15C113.691,15,15,113.691,15,235s98.691,220,220,220s220-98.691,220-220S356.309,15,235,15z    M45,235c0,4.142-3.357,7.5-7.5,7.5S30,239.142,30,235c0-113.038,91.963-205,205-205c4.143,0,7.5,3.358,7.5,7.5S239.143,45,235,45   C130.233,45,45,130.234,45,235z M129.893,235c0-57.957,47.151-105.107,105.107-105.107S340.107,177.043,340.107,235   S292.956,340.107,235,340.107S129.893,292.957,129.893,235z M235,370.107c-4.143,0-7.5-3.358-7.5-7.5s3.357-7.5,7.5-7.5   c66.228,0,120.107-53.88,120.107-120.107c0-4.142,3.357-7.5,7.5-7.5s7.5,3.358,7.5,7.5   C370.107,309.499,309.498,370.107,235,370.107z"
   id="path2" />
	<path
   style="fill:#20c2ff;fill-opacity:1"
   d="M401.17,68.83C356.784,24.444,297.771,0,235,0S113.216,24.444,68.83,68.83S0,172.229,0,235   c0,62.771,24.444,121.785,68.83,166.17C113.216,445.556,172.229,470,235,470s121.784-24.444,166.17-68.83   C445.556,356.785,470,297.771,470,235C470,172.229,445.556,113.216,401.17,68.83z M235,455c-121.309,0-220-98.691-220-220   S113.691,15,235,15s220,98.691,220,220S356.309,455,235,455z"
   id="path4" />
	<path
   style="fill:#20c2ff;fill-opacity:1"
   d="M340.107,235c0-57.957-47.151-105.107-105.107-105.107S129.893,177.043,129.893,235   S177.044,340.107,235,340.107S340.107,292.957,340.107,235z M235,144.893c49.686,0,90.107,40.422,90.107,90.107   S284.686,325.107,235,325.107S144.893,284.686,144.893,235S185.314,144.893,235,144.893z"
   id="path6" />
	<path
   style="fill:#FFFFFF;"
   d="M242.5,37.5c0-4.142-3.357-7.5-7.5-7.5C121.963,30,30,121.962,30,235c0,4.142,3.357,7.5,7.5,7.5   s7.5-3.358,7.5-7.5c0-104.766,85.233-190,190-190C239.143,45,242.5,41.642,242.5,37.5z"
   id="path8" />
	<path
   style="fill:#FFFFFF;"
   d="M362.607,227.5c-4.143,0-7.5,3.358-7.5,7.5c0,66.228-53.88,120.107-120.107,120.107   c-4.143,0-7.5,3.358-7.5,7.5s3.357,7.5,7.5,7.5c74.498,0,135.107-60.609,135.107-135.107   C370.107,230.858,366.75,227.5,362.607,227.5z"
   id="path10" />
</g>
<g
   id="g14">
</g>
<g
   id="g16">
</g>
<g
   id="g18">
</g>
<g
   id="g20">
</g>
<g
   id="g22">
</g>
<g
   id="g24">
</g>
<g
   id="g26">
</g>
<g
   id="g28">
</g>
<g
   id="g30">
</g>
<g
   id="g32">
</g>
<g
   id="g34">
</g>
<g
   id="g36">
</g>
<g
   id="g38">
</g>
<g
   id="g40">
</g>
<g
   id="g42">
</g>
</svg>